<svg width="174" height="144" viewBox="0 0 174 144" fill="none" xmlns="http://www.w3.org/2000/svg">
<path d="M148.857 0.398682H94.514V0.482092L58.9235 11.2837L81.0631 38.5589L80.9159 39.0176L50.0872 57.076L68.8888 80.264L68.7906 80.5977L46.209 93.8182L60.0034 110.792L54.4071 130.018L0.947754 143.781H67.3978L100.552 123.22L110.37 141.988L149.741 143.781L132.363 130.644C140.217 119.175 136.633 104.036 123.134 96.2788L125.244 87.6875L141.788 76.1352L128.092 75.9684L130.399 67.0852H168.346V56.9091V49.6107L160.737 56.075L153.128 49.6107L146.893 54.9073L140.659 49.6107L135.259 54.1983L133.541 54.0732L139.824 27.6738L145.862 32.8036L152.097 27.507L158.331 32.8036L165.94 26.3393L173.549 32.8036V0.398682H148.906H148.857Z" fill="url(#paint0_linear_376_135)"/>
<path d="M108.503 17.2472C110.699 17.2472 112.479 15.7348 112.479 13.8691C112.479 12.0034 110.699 10.491 108.503 10.491C106.307 10.491 104.527 12.0034 104.527 13.8691C104.527 15.7348 106.307 17.2472 108.503 17.2472Z" fill="white"/>
<defs>
<linearGradient id="paint0_linear_376_135" x1="87.2485" y1="0.398682" x2="87.2485" y2="143.781" gradientUnits="userSpaceOnUse">
<stop stop-color="#A532FF"/>
<stop offset="1" stop-color="#2C58C8"/>
</linearGradient>
</defs>
</svg>
